<svg xmlns="http://www.w3.org/2000/svg" xml:space="preserve" id="Layer_1" x="0" y="0" version="1.1" viewBox="0 0 81 70"><style>.st0{fill:#fff}</style><path d="M15.6 58c-.7 0-1.3-.1-1.9-.2-.6-.2-1-.4-1.4-.7l.5-1.2c.3.2.5.4.8.5l.9.3c.3.1.7.1 1.1.1.6 0 1.1-.1 1.3-.3.3-.2.4-.5.4-.8s-.1-.5-.3-.7-.5-.3-1-.4l-1.3-.3c-.8-.2-1.3-.4-1.7-.8q-.6-.6-.6-1.5c0-.5.1-1 .4-1.4q.45-.6 1.2-.9c.75-.3 1.1-.3 1.7-.3s1.1.1 1.6.3.9.4 1.3.7l-.5 1.1c-.3-.3-.7-.5-1.1-.6s-.9-.2-1.3-.2c-.6 0-1 .1-1.3.3s-.5.5-.5.9c0 .3.1.5.3.7s.5.3 1 .4l1.3.3c.8.2 1.4.4 1.7.8.4.4.6.8.6 1.4 0 .5-.1.9-.4 1.3s-.6.7-1.1.9-1.1.3-1.7.3m4.7-.1v-8.3h5.6v1.2h-4.1v2.3h3.9v1.2h-3.9v2.4h4.1v1.2zm7 0v-8.3h3.6q1.35 0 2.1.6c.5.4.8 1 .8 1.8 0 .5-.1.9-.3 1.3s-.5.6-1 .8q-.6.3-1.5.3l.2-.2h.4q.45 0 .9.3c.45.3.5.4.6.8l1.2 2.6h-1.7l-1.2-2.7c-.1-.3-.3-.5-.5-.5-.2-.1-.5-.1-.8-.1h-1.3V58zm1.5-4.5h1.9q.75 0 1.2-.3c.45-.3.4-.6.4-1s-.1-.8-.4-1q-.45-.3-1.2-.3h-1.9zm9.3 4.5-3.7-8.3H36l3 7h-.5l3-7h1.6l-3.7 8.3zm5.9 0v-8.3h1.5v8.3zm7.2.1c-.9 0-1.6-.2-2.2-.5-.6-.4-1.1-.9-1.4-1.5s-.5-1.4-.5-2.3.2-1.6.5-2.3c.3-.6.8-1.1 1.4-1.5s1.4-.5 2.2-.5c.6 0 1.1.1 1.6.2.5.2.9.4 1.2.7l-.5 1.2c-.4-.3-.7-.5-1.1-.6-.3-.1-.7-.2-1.2-.2-.8 0-1.5.3-1.9.8s-.7 1.2-.7 2.2c0 .9.2 1.7.7 2.2.4.5 1.1.8 1.9.8.4 0 .8-.1 1.2-.2.3-.1.7-.4 1.1-.7L54 57c-.3.3-.7.6-1.2.7-.5.2-1 .3-1.6.3m4.2-.1v-8.3H61v1.2h-4.1v2.3h3.9v1.2h-3.9v2.4H61v1.2zm9.8.1c-.7 0-1.3-.1-1.9-.2-.6-.2-1-.4-1.4-.7l.5-1.2c.3.2.5.4.8.5l.9.3c.3.1.7.1 1.1.1.6 0 1.1-.1 1.3-.3.3-.2.4-.5.4-.8s-.1-.5-.3-.7-.5-.3-1-.4l-1.3-.3c-.8-.2-1.3-.4-1.7-.8q-.6-.6-.6-1.5c0-.5.1-1 .4-1.4q.45-.6 1.2-.9c.5-.2 1.1-.3 1.7-.3s1.1.1 1.6.3.9.4 1.3.7l-.5 1.1c-.3-.3-.7-.5-1.1-.6s-.9-.2-1.3-.2c-.6 0-1 .1-1.3.3s-.5.5-.5.9c0 .3.1.5.3.7s.5.3 1 .4l1.3.3c.8.2 1.4.4 1.7.8.4.4.6.8.6 1.4 0 .5-.1.9-.4 1.3s-.6.7-1.1.9c-.4.2-1 .3-1.7.3" class="st0"/><g id="XMLID_6217_"><path id="XMLID_6221_" d="M54.8 38.6c-1.2-7.9-2.3-15.7-3.5-23.6-.2-1.1-.3-2.3-.5-3.4 0-.3-.4-.4-.7-.4-2.6.4-5.1.8-7.7 1.1-.3 0-.4.4-.4.7.5 3.4 1 6.9 1.5 10.3-2.4-2.3-4.8-4.7-7.3-7-.8-.8-1.7-1.6-2.5-2.4-.2-.2-.6-.2-.8 0-1.8 1.9-3.6 3.7-5.4 5.6-.2.2-.2.6 0 .8.5.4.9.9 1.4 1.3-.4-.2-.7-.3-1.1-.5-.2-.1-.6-.1-.7.2-1 2.3-2.1 4.7-3.1 7-.1.2-.1.6.2.7l3.9 1.8h-2.5c-.3 0-.5.2-.5.5 0 2.6-.1 5.2-.1 7.8 0 .3.2.5.5.5 6.8.1 13.7.2 20.5.2v.1c0 .3.4.4.7.4.6-.1 1.2-.2 1.9-.3.2.1.3.1.5.2s.6.1.7-.2c0-.1.1-.1.1-.2h2.9c.3 0 .5-.2.5-.5v-.1c.4-.1.7-.1 1.1-.2.3 0 .4-.3.4-.5zm-26-18.7c1.6-1.6 3.1-3.2 4.7-4.8 3.5 3.3 6.9 6.7 10.4 10 .5 3.6 1.1 7.2 1.6 10.9-4.8-4.7-9.7-9.3-14.5-14-.8-.8-1.5-1.5-2.2-2.1m-1 9.7-2.7-1.2c.9-2 1.8-4.1 2.8-6.1 1.1.5 2.3 1 3.4 1.5 4.5 4.3 9 8.7 13.5 13 .3.3.6.5.8.8-5.9-2.7-11.8-5.3-17.8-8m1.1 9H26c0-2.2.1-4.5.1-6.7 1.5 0 2.9 0 4.4.1l15.3 6.9c-5.6-.1-11.2-.2-16.9-.3m18.1.7c-1.1-7.7-2.3-15.4-3.4-23.2-.1-.9-.3-1.9-.4-2.8 2.2-.3 4.4-.7 6.7-1 1.1 7.7 2.3 15.4 3.4 23.1.1.9.3 1.9.4 2.8-2.3.4-4.5.7-6.7 1.1" class="st0"/><path id="XMLID_6218_" d="M49.9 34.2c-1 0-1.8.8-1.8 1.8s.8 1.8 1.8 1.8 1.8-.8 1.8-1.8-.8-1.8-1.8-1.8m0 3c-.7 0-1.2-.5-1.2-1.2s.5-1.2 1.2-1.2 1.2.5 1.2 1.2-.5 1.2-1.2 1.2" class="st0"/></g></svg>