<svg xmlns="http://www.w3.org/2000/svg" xml:space="preserve" id="Layer_1" x="0" y="0" version="1.1" viewBox="0 0 81 70"><style>.st1{fill:none;stroke:#fff;stroke-miterlimit:10}</style><path d="M22.6 58.3v-8.5h1.2l4.9 6.3h-.4v-6.3h1.4v8.5h-1.2L23.6 52h.3v6.3zm9 0v-8.5h5.7V51h-4.2v2.4H37v1.2h-3.9v2.5h4.2v1.2zm9.5 0-3-8.5h1.6l2.3 6.9h-.5l2.5-6.9h1.2l2.3 6.9h-.4l2.4-6.9H51l-3 8.5h-1.3l-2.2-6.5h.3l-2.3 6.5zm13.9.1c-.7 0-1.3-.1-1.9-.3s-1.1-.4-1.5-.7l.5-1.2c.3.2.6.4.9.5l.9.3c.3.1.7.1 1.1.1.6 0 1.1-.1 1.4-.3s.4-.5.4-.8-.1-.5-.3-.7-.5-.3-1-.4l-1.4-.3c-.8-.2-1.4-.4-1.7-.8q-.6-.6-.6-1.5c0-.5.1-1 .4-1.4q.45-.6 1.2-.9c.75-.3 1.1-.3 1.8-.3.6 0 1.2.1 1.7.3s.9.4 1.3.7l-.5 1.2c-.3-.3-.7-.5-1.1-.6s-.9-.2-1.4-.2c-.6 0-1 .1-1.3.3s-.5.5-.5.9c0 .3.1.5.3.7s.5.3 1 .4l1.3.3c.8.2 1.4.4 1.8.8s.6.8.6 1.5c0 .5-.1.9-.4 1.3q-.45.6-1.2.9c-.6.1-1.1.2-1.8.2" style="fill:#fff"/><path d="M49.8 40.4H30.3c-1.5 0-2.7-1.2-2.7-2.7V14.5c0-1.5 1.2-2.7 2.7-2.7h19.4c1.5 0 2.7 1.2 2.7 2.7v23.2c.1 1.5-1.2 2.7-2.6 2.7zM31.8 16.4h7.5M31.8 22.4h17M31.8 28.5h17M31.8 34.8h17" class="st1"/></svg>